<svg width="50" height="50" viewBox="0 0 50 50" fill="none" xmlns="http://www.w3.org/2000/svg">
<path d="M47.6253 14.8808C47.2728 14.5734 46.8369 14.3778 46.373 14.3187C45.9091 14.2596 45.4381 14.3396 45.0198 14.5487L35.2132 19.4315L27.0257 5.83194C26.8152 5.48297 26.5182 5.1943 26.1633 4.99391C25.8084 4.79353 25.4078 4.68823 25.0003 4.68823C24.5928 4.68823 24.1922 4.79353 23.8373 4.99391C23.4824 5.1943 23.1854 5.48297 22.9749 5.83194L14.7874 19.4374L4.98467 14.5546C4.56737 14.3473 4.09815 14.268 3.6359 14.3264C3.17365 14.3849 2.73896 14.5785 2.38638 14.8831C2.0338 15.1877 1.77903 15.5897 1.65406 16.0385C1.52908 16.4874 1.53946 16.9632 1.68389 17.4062L8.91045 39.5468C8.98311 39.7692 9.1048 39.9725 9.26653 40.1416C9.42827 40.3107 9.62592 40.4413 9.84489 40.5238C10.0639 40.6063 10.2986 40.6385 10.5317 40.6182C10.7648 40.5978 10.9903 40.5254 11.1917 40.4062C11.2405 40.3769 16.2347 37.4999 25.0003 37.4999C33.7659 37.4999 38.7601 40.3769 38.805 40.4042C39.0064 40.5246 39.2323 40.598 39.466 40.6191C39.6997 40.6402 39.9352 40.6083 40.1549 40.526C40.3746 40.4436 40.5729 40.3128 40.7352 40.1433C40.8974 39.9738 41.0194 39.7699 41.0921 39.5468L48.3186 17.412C48.4672 16.9689 48.4806 16.4916 48.3572 16.0409C48.2337 15.5901 47.9789 15.1863 47.6253 14.8808ZM38.6722 36.8808C36.3284 35.8866 31.6565 34.3749 25.0003 34.3749C18.344 34.3749 13.6722 35.8866 11.3284 36.8808L5.21709 18.164L14.0198 22.5526C14.5527 22.8154 15.1646 22.8691 15.735 22.7032C16.3055 22.5373 16.7931 22.1637 17.1019 21.6562L25.0003 8.52725L32.8987 21.6523C33.2078 22.159 33.695 22.5319 34.2649 22.6978C34.8348 22.8636 35.4461 22.8105 35.9788 22.5487L44.7835 18.164L38.6722 36.8808ZM34.3499 30.6308C34.2861 30.9922 34.0971 31.3197 33.8161 31.5558C33.535 31.7918 33.1798 31.9214 32.8128 31.9218C32.7211 31.9217 32.6297 31.9138 32.5394 31.8983C27.5485 31.0416 22.4482 31.0416 17.4573 31.8983C17.0491 31.9703 16.6291 31.8772 16.2895 31.6395C15.95 31.4018 15.7188 31.039 15.6468 30.6308C15.5748 30.2226 15.6679 29.8025 15.9056 29.463C16.1433 29.1234 16.5062 28.8922 16.9144 28.8202C22.2645 27.901 27.7322 27.901 33.0823 28.8202C33.4897 28.8917 33.8521 29.1219 34.0901 29.4602C34.3281 29.7985 34.4222 30.2173 34.3519 30.6249L34.3499 30.6308Z" fill="#BCFFE7"/>
</svg>
