<svg width="205" height="38" viewBox="0 0 205 38" fill="none" xmlns="http://www.w3.org/2000/svg">
<path d="M57.3651 15.9438V3.54048H67.1328V6.03993H60.6337V8.55817H65.8026V10.9073H60.6337V13.4443H67.3799V15.9438H57.3651Z" fill="#959595"/>
<path d="M69.1255 15.9438V6.54734H72.014L72.109 8.37024C72.4131 7.70623 72.8375 7.20509 73.3822 6.86682C73.9397 6.52855 74.5795 6.35941 75.3016 6.35941C76.011 6.35941 76.6255 6.51602 77.1449 6.82923C77.6643 7.14245 78.0507 7.606 78.3041 8.2199C78.5068 7.80646 78.7665 7.46192 79.0832 7.1863C79.4126 6.91067 79.7864 6.70395 80.2044 6.56613C80.6225 6.42832 81.0532 6.35941 81.4967 6.35941C82.1301 6.35941 82.6875 6.4847 83.1689 6.73527C83.6504 6.97331 84.0304 7.3429 84.3091 7.84404C84.6005 8.33266 84.7462 8.94656 84.7462 9.68574V15.9438H81.5157V10.4187C81.5157 9.81729 81.3953 9.39759 81.1546 9.15954C80.9266 8.9215 80.6162 8.80248 80.2234 8.80248C79.9067 8.80248 79.6153 8.88392 79.3493 9.04679C79.0959 9.19713 78.8995 9.42891 78.7602 9.74212C78.6208 10.0553 78.5511 10.45 78.5511 10.9261V15.9438H75.3206V10.4187C75.3206 9.81729 75.2002 9.39759 74.9595 9.15954C74.7188 8.9215 74.4084 8.80248 74.0284 8.80248C73.737 8.80248 73.4583 8.87765 73.1922 9.02799C72.9388 9.17834 72.7361 9.41638 72.5841 9.74212C72.4321 10.0553 72.3561 10.4688 72.3561 10.9824V15.9438H69.1255Z" fill="#959595"/>
<path d="M96.918 3.54048V6.03993H92.8323V15.9438H89.5637V6.03993H85.459V3.54048H96.918Z" fill="#959595"/>
<path d="M101.432 16.1317C100.381 16.1317 99.4685 15.9375 98.6957 15.5491C97.9355 15.1607 97.3464 14.6032 96.9284 13.8765C96.5103 13.1499 96.3013 12.2729 96.3013 11.2455C96.3013 10.2182 96.5103 9.34121 96.9284 8.61455C97.3464 7.8879 97.9292 7.33037 98.6767 6.94199C99.4368 6.5536 100.305 6.35941 101.28 6.35941C102.281 6.35941 103.13 6.5536 103.827 6.94199C104.536 7.31784 105.074 7.84404 105.442 8.52059C105.809 9.1846 105.993 9.94884 105.993 10.8133C105.993 11.0388 105.987 11.2643 105.974 11.4899C105.961 11.7154 105.942 11.9033 105.917 12.0536H98.3916V10.3435H104.492L102.952 10.9261C102.952 10.1744 102.813 9.59804 102.534 9.19713C102.268 8.79622 101.85 8.59576 101.28 8.59576C100.875 8.59576 100.526 8.68972 100.235 8.87765C99.9562 9.06558 99.7409 9.36 99.5888 9.76091C99.4495 10.1618 99.3798 10.6755 99.3798 11.3019C99.3798 11.9158 99.4621 12.417 99.6268 12.8054C99.7915 13.1812 100.026 13.4568 100.33 13.6322C100.634 13.7951 101.001 13.8765 101.432 13.8765C101.914 13.8765 102.294 13.7826 102.572 13.5947C102.864 13.4067 103.079 13.1436 103.218 12.8054L105.803 13.651C105.626 14.1898 105.315 14.6471 104.872 15.0229C104.441 15.3862 103.922 15.6619 103.313 15.8498C102.718 16.0377 102.091 16.1317 101.432 16.1317Z" fill="#959595"/>
<path d="M112.304 6.35941C113.267 6.35941 114.065 6.49722 114.698 6.77285C115.344 7.03595 115.845 7.39302 116.2 7.84404C116.567 8.28254 116.795 8.75863 116.884 9.2723L113.9 10.2495C113.812 9.7108 113.647 9.30989 113.406 9.04679C113.178 8.77116 112.842 8.63334 112.399 8.63334C111.994 8.63334 111.652 8.72731 111.373 8.91524C111.107 9.09064 110.904 9.37879 110.765 9.77971C110.625 10.1681 110.556 10.6692 110.556 11.2831C110.556 11.897 110.632 12.3982 110.784 12.7866C110.936 13.1624 111.151 13.438 111.43 13.6134C111.709 13.7763 112.038 13.8578 112.418 13.8578C112.735 13.8578 112.994 13.8014 113.197 13.6886C113.412 13.5633 113.59 13.3879 113.729 13.1624C113.869 12.9369 113.957 12.6613 113.995 12.3355L116.903 13.2564C116.814 13.8076 116.573 14.3025 116.181 14.741C115.801 15.167 115.294 15.5053 114.66 15.7558C114.027 16.0064 113.286 16.1317 112.437 16.1317C111.398 16.1317 110.492 15.9438 109.72 15.5679C108.947 15.1795 108.351 14.622 107.933 13.8953C107.515 13.1562 107.306 12.2729 107.306 11.2455C107.306 10.2182 107.515 9.34121 107.933 8.61455C108.351 7.87537 108.934 7.31784 109.682 6.94199C110.442 6.5536 111.316 6.35941 112.304 6.35941Z" fill="#959595"/>
<path d="M118.582 15.9438V2.56326H121.813V8.25749C122.092 7.63106 122.491 7.16124 123.01 6.84802C123.53 6.52228 124.131 6.35941 124.815 6.35941C125.474 6.35941 126.044 6.4847 126.526 6.73527C127.02 6.98584 127.406 7.35543 127.685 7.84404C127.964 8.33266 128.103 8.94656 128.103 9.68574V15.9438H124.872V10.569C124.872 9.89247 124.746 9.42891 124.492 9.17834C124.252 8.91524 123.929 8.78369 123.523 8.78369C123.219 8.78369 122.934 8.85886 122.668 9.0092C122.402 9.15954 122.193 9.39759 122.041 9.72333C121.889 10.0491 121.813 10.475 121.813 11.0012V15.9438H118.582Z" fill="#959595"/>
<path d="M60.6337 24.9304V37.3336H57.3651V24.9304H60.6337Z" fill="#959595"/>
<path d="M63.1499 37.3336V27.9372H66.0384L66.2094 31.1696L65.8483 30.8125C65.975 30.136 66.1967 29.5722 66.5134 29.1212C66.8428 28.6702 67.2482 28.3319 67.7297 28.1064C68.2237 27.8683 68.7748 27.7493 69.3829 27.7493C70.0417 27.7493 70.6118 27.8746 71.0932 28.1252C71.5873 28.3757 71.9737 28.7453 72.2524 29.2339C72.5312 29.7225 72.6705 30.3364 72.6705 31.0756V37.3336H69.4399V31.9213C69.4399 31.2698 69.3133 30.8188 69.0599 30.5682C68.8065 30.3177 68.4835 30.1924 68.0907 30.1924C67.7867 30.1924 67.5016 30.2675 67.2356 30.4179C66.9695 30.5557 66.7605 30.7812 66.6085 31.0944C66.4564 31.4076 66.3804 31.8273 66.3804 32.3535V37.3336H63.1499Z" fill="#959595"/>
<path d="M80.8875 27.9372H84.2321L80.8115 37.3336H76.9538L73.5332 27.9372H76.9348L78.8922 35.0973L80.8875 27.9372Z" fill="#959595"/>
<path d="M89.8335 37.5216C88.7819 37.5216 87.8698 37.3274 87.097 36.939C86.3369 36.5506 85.7477 35.9931 85.3297 35.2664C84.9116 34.5398 84.7026 33.6628 84.7026 32.6354C84.7026 31.6081 84.9116 30.7311 85.3297 30.0044C85.7477 29.2778 86.3305 28.7203 87.078 28.3319C87.8381 27.9435 88.7059 27.7493 89.6814 27.7493C90.6823 27.7493 91.5311 27.9435 92.2279 28.3319C92.9373 28.7077 93.4758 29.2339 93.8432 29.9105C94.2106 30.5745 94.3942 31.3387 94.3942 32.2032C94.3942 32.4287 94.3879 32.6542 94.3752 32.8797C94.3626 33.1053 94.3436 33.2932 94.3182 33.4435H86.7929V31.7334H92.893L91.3537 32.316C91.3537 31.5642 91.2144 30.9879 90.9356 30.587C90.6696 30.1861 90.2515 29.9856 89.6814 29.9856C89.276 29.9856 88.9276 30.0796 88.6363 30.2675C88.3575 30.4555 88.1422 30.7499 87.9901 31.1508C87.8508 31.5517 87.7811 32.0654 87.7811 32.6918C87.7811 33.3057 87.8634 33.8069 88.0281 34.1952C88.1928 34.5711 88.4272 34.8467 88.7313 35.0221C89.0353 35.185 89.4027 35.2664 89.8335 35.2664C90.3149 35.2664 90.6949 35.1725 90.9737 34.9845C91.265 34.7966 91.4804 34.5335 91.6198 34.1952L94.2042 35.0409C94.0268 35.5797 93.7165 36.0369 93.2731 36.4128C92.8423 36.7761 92.3229 37.0518 91.7148 37.2397C91.1193 37.4276 90.4922 37.5216 89.8335 37.5216Z" fill="#959595"/>
<path d="M100.192 37.5216C99.242 37.5216 98.3552 37.3712 97.5317 37.0705C96.7209 36.7573 96.0495 36.3126 95.5174 35.7363L97.0376 33.9697C97.3544 34.3706 97.7724 34.7089 98.2919 34.9845C98.8239 35.2476 99.413 35.3792 100.059 35.3792C100.452 35.3792 100.775 35.3228 101.028 35.2101C101.282 35.0973 101.408 34.9219 101.408 34.6839C101.408 34.5085 101.345 34.3706 101.218 34.2704C101.092 34.1577 100.838 34.0637 100.458 33.9885L99.128 33.7254C97.9371 33.4874 97.0883 33.1366 96.5816 32.673C96.0875 32.1969 95.8404 31.5768 95.8404 30.8125C95.8404 30.2989 95.9988 29.8102 96.3155 29.3467C96.6322 28.8706 97.12 28.4885 97.7788 28.2003C98.4376 27.8996 99.28 27.7493 100.306 27.7493C101.269 27.7493 102.118 27.8871 102.853 28.1627C103.587 28.4384 104.17 28.8393 104.601 29.3655L103.062 31.0944C102.758 30.7186 102.365 30.4241 101.883 30.2112C101.402 29.9982 100.921 29.8917 100.439 29.8917C100.135 29.8917 99.8755 29.923 99.6601 29.9856C99.4574 30.0358 99.3054 30.1109 99.204 30.2112C99.1027 30.3114 99.052 30.4367 99.052 30.587C99.052 30.7499 99.128 30.894 99.28 31.0193C99.4447 31.132 99.7424 31.2322 100.173 31.3199L101.902 31.6582C102.878 31.8336 103.581 32.1531 104.012 32.6166C104.443 33.0802 104.658 33.6377 104.658 34.2892C104.658 34.9031 104.493 35.4544 104.164 35.943C103.834 36.4316 103.34 36.82 102.682 37.1081C102.023 37.3838 101.193 37.5216 100.192 37.5216Z" fill="#959595"/>
<path d="M110.306 24.9492V33.9885C110.306 34.4396 110.413 34.7653 110.629 34.9658C110.857 35.1537 111.167 35.2476 111.56 35.2476C111.864 35.2476 112.124 35.2163 112.339 35.1537C112.567 35.0785 112.77 34.972 112.947 34.8342L113.289 36.8074C112.973 37.033 112.574 37.2084 112.092 37.3336C111.611 37.4589 111.117 37.5216 110.61 37.5216C109.888 37.5216 109.261 37.4213 108.729 37.2209C108.209 37.0204 107.804 36.701 107.512 36.2625C107.234 35.824 107.088 35.2414 107.075 34.5147V25.8324L110.306 24.9492ZM113.137 27.9372V30.2112H105.441V27.9372H113.137Z" fill="#959595"/>
<path d="M114.629 37.3336V27.9372H117.518L117.613 29.7601C117.917 29.0961 118.341 28.595 118.886 28.2567C119.444 27.9184 120.083 27.7493 120.806 27.7493C121.515 27.7493 122.129 27.9059 122.649 28.2191C123.168 28.5323 123.555 28.9959 123.808 29.6098C124.011 29.1964 124.27 28.8518 124.587 28.5762C124.917 28.3006 125.29 28.0938 125.708 27.956C126.126 27.8182 126.557 27.7493 127.001 27.7493C127.634 27.7493 128.192 27.8746 128.673 28.1252C129.154 28.3632 129.534 28.7328 129.813 29.2339C130.105 29.7225 130.25 30.3364 130.25 31.0756V37.3336H127.02V31.8086C127.02 31.2072 126.899 30.7875 126.659 30.5494C126.431 30.3114 126.12 30.1924 125.727 30.1924C125.411 30.1924 125.119 30.2738 124.853 30.4367C124.6 30.587 124.404 30.8188 124.264 31.132C124.125 31.4452 124.055 31.8399 124.055 32.316V37.3336H120.825V31.8086C120.825 31.2072 120.704 30.7875 120.464 30.5494C120.223 30.3114 119.912 30.1924 119.532 30.1924C119.241 30.1924 118.962 30.2675 118.696 30.4179C118.443 30.5682 118.24 30.8063 118.088 31.132C117.936 31.4452 117.86 31.8587 117.86 32.3723V37.3336H114.629Z" fill="#959595"/>
<path d="M137.156 37.5216C136.105 37.5216 135.192 37.3274 134.42 36.939C133.66 36.5506 133.07 35.9931 132.652 35.2664C132.234 34.5398 132.025 33.6628 132.025 32.6354C132.025 31.6081 132.234 30.7311 132.652 30.0044C133.07 29.2778 133.653 28.7203 134.401 28.3319C135.161 27.9435 136.029 27.7493 137.004 27.7493C138.005 27.7493 138.854 27.9435 139.551 28.3319C140.26 28.7077 140.798 29.2339 141.166 29.9105C141.533 30.5745 141.717 31.3387 141.717 32.2032C141.717 32.4287 141.711 32.6542 141.698 32.8797C141.685 33.1053 141.666 33.2932 141.641 33.4435H134.116V31.7334H140.216L138.676 32.316C138.676 31.5642 138.537 30.9879 138.258 30.587C137.992 30.1861 137.574 29.9856 137.004 29.9856C136.599 29.9856 136.25 30.0796 135.959 30.2675C135.68 30.4555 135.465 30.7499 135.313 31.1508C135.173 31.5517 135.104 32.0654 135.104 32.6918C135.104 33.3057 135.186 33.8069 135.351 34.1952C135.516 34.5711 135.75 34.8467 136.054 35.0221C136.358 35.185 136.725 35.2664 137.156 35.2664C137.638 35.2664 138.018 35.1725 138.296 34.9845C138.588 34.7966 138.803 34.5335 138.942 34.1952L141.527 35.0409C141.35 35.5797 141.039 36.0369 140.596 36.4128C140.165 36.7761 139.646 37.0518 139.037 37.2397C138.442 37.4276 137.815 37.5216 137.156 37.5216Z" fill="#959595"/>
<path d="M143.524 37.3336V27.9372H146.413L146.584 31.1696L146.223 30.8125C146.349 30.136 146.571 29.5722 146.888 29.1212C147.217 28.6702 147.623 28.3319 148.104 28.1064C148.598 27.8683 149.149 27.7493 149.757 27.7493C150.416 27.7493 150.986 27.8746 151.468 28.1252C151.962 28.3757 152.348 28.7453 152.627 29.2339C152.905 29.7225 153.045 30.3364 153.045 31.0756V37.3336H149.814V31.9213C149.814 31.2698 149.688 30.8188 149.434 30.5682C149.181 30.3177 148.858 30.1924 148.465 30.1924C148.161 30.1924 147.876 30.2675 147.61 30.4179C147.344 30.5557 147.135 30.7812 146.983 31.0944C146.831 31.4076 146.755 31.8273 146.755 32.3535V37.3336H143.524Z" fill="#959595"/>
<path d="M159.224 24.9492V33.9885C159.224 34.4396 159.332 34.7653 159.547 34.9658C159.776 35.1537 160.086 35.2476 160.479 35.2476C160.783 35.2476 161.042 35.2163 161.258 35.1537C161.486 35.0785 161.689 34.972 161.866 34.8342L162.208 36.8074C161.891 37.033 161.492 37.2084 161.011 37.3336C160.529 37.4589 160.035 37.5216 159.528 37.5216C158.806 37.5216 158.179 37.4213 157.647 37.2209C157.128 37.0204 156.722 36.701 156.431 36.2625C156.152 35.824 156.007 35.2414 155.994 34.5147V25.8324L159.224 24.9492ZM162.056 27.9372V30.2112H154.36V27.9372H162.056Z" fill="#959595"/>
<path d="M180.725 24.9304V37.3336H177.457V24.9304H180.725ZM172.668 24.9304V37.3336H169.399V24.9304H172.668ZM179.205 29.8353V32.3348H170.995V29.8353H179.205Z" fill="#959595"/>
<path d="M186.431 37.5216C185.785 37.5216 185.215 37.4151 184.721 37.2021C184.239 36.9766 183.859 36.6195 183.581 36.1309C183.302 35.6423 183.163 35.0033 183.163 34.214V27.9372H186.393V33.4623C186.393 34.0637 186.513 34.4834 186.754 34.7214C186.995 34.9595 187.337 35.0785 187.78 35.0785C188.008 35.0785 188.224 35.0409 188.426 34.9658C188.629 34.8781 188.806 34.7528 188.958 34.5899C189.111 34.4145 189.225 34.1952 189.301 33.9321C189.389 33.6565 189.434 33.337 189.434 32.9737V27.9372H192.664V37.3336H189.776L189.681 35.5671C189.377 36.2311 188.952 36.726 188.407 37.0518C187.863 37.365 187.204 37.5216 186.431 37.5216Z" fill="#959595"/>
<path d="M201.085 37.5216C200.464 37.5216 199.913 37.3838 199.432 37.1081C198.963 36.8325 198.577 36.4566 198.273 35.9806C197.969 35.4919 197.772 34.9407 197.684 34.3268L197.988 33.9321L197.817 37.3336H194.985V23.9531H198.216V30.8877L197.912 30.4367C198.089 29.6599 198.45 29.021 198.995 28.5198C199.54 28.0061 200.274 27.7493 201.199 27.7493C201.934 27.7493 202.587 27.9435 203.157 28.3319C203.739 28.7203 204.189 29.284 204.506 30.0232C204.835 30.7499 205 31.6332 205 32.673C205 33.6878 204.835 34.5586 204.506 35.2852C204.176 36.0119 203.72 36.5694 203.138 36.9578C202.555 37.3336 201.871 37.5216 201.085 37.5216ZM199.964 35.1725C200.521 35.1725 200.959 34.972 201.275 34.5711C201.592 34.1577 201.75 33.5124 201.75 32.6354C201.75 31.7584 201.592 31.1195 201.275 30.7186C200.959 30.3051 200.521 30.0984 199.964 30.0984C199.597 30.0984 199.28 30.2049 199.014 30.4179C198.761 30.6183 198.564 30.9065 198.425 31.2824C198.285 31.6582 198.216 32.1155 198.216 32.6542C198.216 33.193 198.285 33.6503 198.425 34.0261C198.564 34.402 198.767 34.6901 199.033 34.8906C199.299 35.0785 199.609 35.1725 199.964 35.1725Z" fill="#959595"/>
<path d="M44.0362 37.75L24.2428 37.75L24.2428 29.1172H28.9163L26.628 25.1977L34.188 20.8813L44.0362 37.75Z" fill="#959595"/>
<path d="M32.0883 17.2848L22.1431 0.25L12.2464 17.2017L19.8064 21.5181L22.1431 17.5156L24.5283 21.6012L32.0883 17.2848Z" fill="#959595"/>
<path d="M20.0433 37.75L20.0433 29.1172H15.3699L17.7067 25.1146L10.1467 20.7982L0.25 37.75L20.0433 37.75Z" fill="#959595"/>
</svg>
