<svg width="186" height="40" viewBox="0 0 186 40" fill="none" xmlns="http://www.w3.org/2000/svg">
<path d="M45.8758 16.0267L43.2129 11.6118L13.6016 32.1518L45.8758 16.0267Z" fill="#6B6B6B"/>
<path d="M36.9095 24.0819L14.2651 33.2877L35.7319 28.5607L40.184 36.1983H6.18511L23.1846 7.05056L29.4411 17.8658L32.0395 15.7449L23.1884 0.556152L0.509766 39.4436H45.8708L36.9133 24.0819H36.9095Z" fill="#6B6B6B"/>
<path d="M92.5323 19.3438L95.0964 19.0392L97.5846 14.7447L106.079 29.3731H108.468L97.5846 10.627L92.5323 19.3476V19.3438ZM125.787 11.4618H113.756V29.3731H115.826V13.5113H125.787C128.586 13.5113 130.619 14.9102 130.619 16.8356C130.619 18.7609 128.586 20.1599 125.787 20.1599H118.702L117.562 22.1153H117.547V22.2131H125.79C129.791 22.2131 132.693 19.953 132.693 16.8393C132.693 13.7256 129.791 11.4655 125.79 11.4655L125.787 11.4618ZM68.0303 29.3731H70.1006V13.5113H83.9091V11.4618H68.0303V29.3731ZM86.7202 29.3731H89.1096L92.2512 23.9542L90.0175 23.6872L86.724 29.3694L86.7202 29.3731ZM178.247 23.6872L176.006 23.9542L179.148 29.3731H181.545L178.247 23.6872ZM134.246 29.3731H136.621L145.103 14.7372L152.454 27.3124H140.188L138.999 29.3618H156.048L145.096 10.6307L134.246 29.3731ZM159.804 29.3731H162.19L170.669 14.7447L173.157 19.043L175.725 19.3476L170.665 10.627L159.801 29.3731H159.804Z" fill="#6B6B6B"/>
<path d="M72.9932 21.6639L99.687 22.4912L98.745 20.8667L72.9932 21.6639Z" fill="#6B6B6B"/>
<path d="M169.478 20.897L168.562 22.4764L185.991 21.6641L169.478 20.897Z" fill="#6B6B6B"/>
</svg>
