<svg width="171" height="46" viewBox="0 0 171 46" fill="none" xmlns="http://www.w3.org/2000/svg">
<g clip-path="url(#clip0_1272_86)">
<path d="M12.7377 0.758789L7.2823 3.78024L13.1573 4.61953L13.0733 11.0821L18.5287 8.14456L18.6127 1.59813L12.7377 0.758789Z" fill="#6B6B6B"/>
<path d="M6.77864 6.38201L1.32324 9.40346L7.19829 10.2428L12.6537 7.30523L6.77864 6.38201Z" fill="#6B6B6B"/>
<path d="M18.5287 8.14456L13.0733 11.0821L12.9897 17.6286L18.4451 14.6072L18.5287 8.14456Z" fill="#6B6B6B"/>
<path d="M13.1573 4.61957L13.0733 11.0821L12.9894 17.6286L7.11436 16.7893L1.32324 15.95V9.40353L7.19829 10.2428L7.28222 3.78027L13.1573 4.61957Z" fill="#DCDCDC"/>
<path d="M29.5227 3.27734L23.9834 6.2988L29.8584 7.13809L35.3138 4.20057L29.5227 3.27734Z" fill="#6B6B6B"/>
<path d="M35.3138 4.20057L29.8584 7.13809L29.7748 13.6846L35.6498 14.5239L35.5659 21.0704L41.1052 18.0489V11.5024L35.3142 10.6632L35.3138 4.20057Z" fill="#6B6B6B"/>
<path d="M29.8603 7.13812L29.7764 13.6846L35.6515 14.5239L35.5675 21.0704L29.7764 20.1471L23.9014 19.3079L23.9853 12.8453V6.29883L29.8603 7.13812Z" fill="#DCDCDC"/>
<path d="M29.1888 26.0215L23.7334 28.959L29.6084 29.7983L35.4834 30.7215L35.3995 37.1841L40.8549 34.2466L40.9388 27.7001L29.1888 26.0215Z" fill="#6B6B6B"/>
<path d="M34.9797 33.4071L29.5244 36.3446L29.4404 42.8911L34.8958 39.8696L34.9797 33.4071Z" fill="#6B6B6B"/>
<path d="M35.4795 30.7215L35.3955 37.1841L29.5205 36.3448L29.4366 42.8912L23.5615 42.0519L23.6455 35.5055L23.7294 28.959L29.6044 29.7983L35.4795 30.7215Z" fill="#DCDCDC"/>
<path d="M6.61067 22.5811L1.15527 25.6025L12.9053 27.2811L12.7373 40.2902L18.1927 37.3526L18.3607 24.2596L6.61067 22.5811Z" fill="#6B6B6B"/>
<path d="M12.9034 27.2811L12.8194 33.8276L12.7355 40.2902L6.86045 39.4509L6.94438 32.9883L1.06934 32.0651L1.15327 25.6025L7.02831 26.4418L12.9034 27.2811Z" fill="#DCDCDC"/>
</g>
<path d="M56.0693 14.3915H57.622V29.0791H56.0693V14.3915Z" fill="#6B6B6B"/>
<path d="M80.3408 14.3915V29.0791H79.0609L69.6188 17.1612V29.0791H68.0661V14.3915H69.3461L78.8091 26.3095V14.3915H80.3408Z" fill="#6B6B6B"/>
<path d="M102.848 14.3915L96.3432 29.0791H94.8115L88.307 14.3915H89.9856L95.6089 27.1488L101.274 14.3915H102.848Z" fill="#6B6B6B"/>
<path d="M121.031 27.7363V29.0791H110.645V14.3915H120.716V15.7344H112.197V20.959H119.793V22.2809H112.197V27.7363H121.031Z" fill="#6B6B6B"/>
<path d="M145.6 14.3915V29.0791H144.11V17.329L138.34 27.2117H137.606L131.836 17.392V29.0791H130.346V14.3915H131.626L138.004 25.2813L144.32 14.3915H145.6Z" fill="#6B6B6B"/>
<path d="M162.471 29.205C161.017 29.205 159.695 28.8833 158.506 28.2398C157.331 27.5824 156.408 26.6872 155.736 25.5541C155.079 24.4211 154.75 23.1481 154.75 21.7353C154.75 20.3225 155.079 19.0496 155.736 17.9165C156.408 16.7835 157.331 15.8953 158.506 15.2518C159.695 14.5943 161.017 14.2656 162.471 14.2656C163.926 14.2656 165.234 14.5874 166.395 15.2308C167.57 15.8743 168.493 16.7695 169.165 17.9165C169.836 19.0496 170.172 20.3225 170.172 21.7353C170.172 23.1481 169.836 24.4281 169.165 25.5751C168.493 26.7081 167.57 27.5964 166.395 28.2398C165.234 28.8833 163.926 29.205 162.471 29.205ZM162.471 27.8202C163.632 27.8202 164.682 27.5614 165.619 27.0439C166.556 26.5123 167.29 25.7849 167.822 24.8617C168.353 23.9245 168.619 22.8824 168.619 21.7353C168.619 20.5883 168.353 19.5532 167.822 18.6299C167.29 17.6927 166.556 16.9653 165.619 16.4478C164.682 15.9162 163.632 15.6505 162.471 15.6505C161.31 15.6505 160.254 15.9162 159.303 16.4478C158.366 16.9653 157.625 17.6927 157.079 18.6299C156.547 19.5532 156.282 20.5883 156.282 21.7353C156.282 22.8824 156.547 23.9245 157.079 24.8617C157.625 25.7849 158.366 26.5123 159.303 27.0439C160.254 27.5614 161.31 27.8202 162.471 27.8202Z" fill="#6B6B6B"/>
<defs>
<clipPath id="clip0_1272_86">
<rect width="41.1253" height="44.4825" fill="white" transform="translate(1.06934 0.758789)"/>
</clipPath>
</defs>
</svg>
