<svg width="146" height="46" viewBox="0 0 146 46" fill="none" xmlns="http://www.w3.org/2000/svg">
<path d="M109.926 44.0368V43.4793C111.264 43.4793 112.342 43.0891 113.16 42.3086C114.015 41.491 114.442 40.3946 114.442 39.0194V7.24275C114.442 5.90479 114.015 4.82698 113.16 4.00933C112.342 3.19169 111.264 2.78287 109.926 2.78287V2.22538H115.613C117.508 2.22538 118.957 2.02097 119.961 1.61215C120.89 1.20332 121.54 0.701586 121.912 0.106934H122.469V39.0194C122.469 40.3946 122.878 41.491 123.696 42.3086C124.551 43.0891 125.647 43.4793 126.985 43.4793V44.0368H109.926Z" fill="#FAFAFA"/>
<path fill-rule="evenodd" clip-rule="evenodd" d="M96.94 44.7058C94.3757 44.7058 92.0901 44.074 90.0832 42.8104C88.1135 41.5467 86.5711 39.7999 85.4562 37.57C84.3413 35.3029 83.7838 32.7199 83.7838 29.8209C83.7838 26.8477 84.397 24.2461 85.6234 22.0161C85.9306 21.4576 86.2657 20.9306 86.6289 20.4351C80.9151 22.9955 74.2943 25.619 67.1358 28.1024C51.296 33.5976 36.8007 37.0273 28.3047 37.5893V39.0456C28.3047 40.3836 28.7135 41.4614 29.5311 42.279C30.3488 43.0967 31.4265 43.5055 32.7645 43.5055H32.8202V44.063H26.6161L26.6088 44.0598C24.7846 44.011 23.2848 43.3988 22.1093 42.2233C20.8829 40.9968 20.2697 39.3987 20.2697 37.4289V15.9657H15.5312V15.241C18.0955 15.0551 20.3812 14.2375 22.388 12.788C24.4321 11.3386 26.1045 9.38736 27.4053 6.93442H28.2972V13.6243H28.3047V14.9622H35.7115L35.1541 15.9657H28.3047V28.24C32.0377 26.0062 36.9404 23.5428 42.6713 21.0374L38.2259 9.90636C36.629 5.8583 34.8465 3.83427 32.8782 3.83427H32.7111V3.2772H50.3697V3.83427H50.1469C48.4757 3.83427 47.3616 4.35421 46.8046 5.39408C46.2475 6.3968 46.3218 7.78948 47.0274 9.57212L50.2876 17.8795C53.5444 16.5965 56.9805 15.3232 60.5504 14.0847L59.0598 9.90636C58.3542 7.9009 57.5 6.3968 56.4973 5.39408C55.5317 4.35421 54.3062 3.83427 52.8208 3.83427H52.7093V3.2772H70.5908V3.83427H70.368C68.7711 3.83427 67.7312 4.33564 67.2485 5.33837C66.7657 6.3411 66.8214 7.75235 67.4156 9.57212L68.0992 11.5873C74.4771 9.58103 80.4904 7.95665 85.8016 6.77232C85.7017 6.32975 85.515 5.92604 85.2413 5.5612C84.4986 4.48419 83.1802 3.90855 81.2862 3.83427V3.2772H91.4803V3.83427C90.4776 3.83427 89.5306 4.31707 88.6394 5.28266C88.3551 5.60399 88.0873 5.9541 87.836 6.33301C98.5948 4.08805 106.063 3.81727 107.113 6.05964C107.195 6.23474 107.237 6.42216 107.239 6.62119C107.324 8.51957 103.753 11.502 97.6714 14.9382C97.7618 14.9368 97.8525 14.9361 97.9435 14.9361C100.211 14.9361 102.217 15.382 103.964 16.274C105.748 17.166 107.16 18.4296 108.201 20.0649C109.279 21.6631 109.892 23.5213 110.041 25.6398L110.096 26.476H91.3654V26.7548C91.3654 30.6943 92.2387 33.8534 93.9855 36.232C95.7322 38.5735 98.0736 39.7442 101.01 39.7442C102.793 39.7442 104.484 39.3168 106.083 38.462C107.718 37.57 109.037 36.3807 110.041 34.8941L110.542 35.0613C109.91 36.9567 108.926 38.6292 107.588 40.0787C106.25 41.5281 104.67 42.6617 102.849 43.4793C101.028 44.297 99.0584 44.7058 96.94 44.7058ZM91.4211 25.6398H102.738C102.738 22.7037 102.255 20.3251 101.288 18.504C100.359 16.6828 99.0398 15.7723 97.3303 15.7723C95.695 15.7723 94.3385 16.6643 93.2607 18.4482C92.183 20.2322 91.5698 22.6294 91.4211 25.6398ZM64.6881 25.7957L63.0706 21.2706L60.7141 27.0895C62.0205 26.6755 63.3465 26.2439 64.6881 25.7957ZM59.8489 27.3621L62.7363 20.2122L61.057 15.5049C57.4548 16.806 54.0432 18.1293 50.8981 19.4352L54.6104 28.8944C56.2838 28.4279 58.012 27.9232 59.7834 27.3826C59.8053 27.3758 59.8271 27.369 59.8489 27.3621ZM81.7298 19.4555C78.7205 20.7037 75.4715 21.9703 72.0463 23.2226L68.553 12.9252C74.8727 10.8571 80.7976 9.19132 85.865 8.01736C85.8146 8.51694 85.681 9.05376 85.4641 9.62782L81.7298 19.4555ZM82.6303 19.0795L86.5225 8.95934C86.6814 8.53558 86.8524 8.13298 87.0355 7.75153C95.6063 5.8453 101.477 5.44647 102.217 7.02616C102.251 7.09889 102.274 7.17516 102.286 7.25472C102.446 9.43252 94.5234 14.0812 82.6303 19.0795ZM43.3629 22.7691C35.0461 26.7157 30.0658 30.1423 30.8372 31.7894C31.5943 33.4058 37.7238 32.9506 46.6215 30.9284L43.3629 22.7691Z" fill="#FAFAFA"/>
<path d="M131.984 42.9776C133.21 44.2041 134.79 44.8173 136.722 44.8173C138.32 44.8173 139.956 44.3713 141.628 43.4793C143.301 42.5502 144.75 41.3051 145.976 39.7442V39.1867C145.196 39.8557 144.36 40.3946 143.468 40.8034C142.613 41.2122 141.851 41.4166 141.182 41.4166C139.175 41.4166 138.172 39.93 138.172 36.9568V16.72H145.029L145.586 15.7165H138.172V7.68874H137.28C135.979 10.1417 134.307 12.0929 132.263 13.5423C130.256 14.9918 127.97 15.8095 125.406 15.9953V16.72H130.144V38.1832C130.144 40.153 130.757 41.7511 131.984 42.9776Z" fill="#FAFAFA"/>
<path d="M8.49794 10.1124C7.16001 10.1124 6.04507 9.685 5.15313 8.83019C4.29834 7.93821 3.87095 6.82324 3.87095 5.48527C3.87095 4.14731 4.29834 3.05092 5.15313 2.1961C6.04507 1.30413 7.16001 0.858139 8.49794 0.858139C9.7987 0.858139 10.8765 1.30413 11.7313 2.1961C12.6232 3.08808 13.0692 4.18447 13.0692 5.48527C13.0692 6.78607 12.6232 7.88246 11.7313 8.77444C10.8765 9.66642 9.7987 10.1124 8.49794 10.1124Z" fill="#FAFAFA"/>
<path d="M0.0244141 44.0633V43.5058H0.0801609C1.41809 43.5058 2.49586 43.097 3.31348 42.2793C4.1311 41.4617 4.53991 40.3839 4.53991 39.0459V20.7604C4.53991 19.3481 4.24259 18.2517 3.64796 17.4712C3.09049 16.6907 1.88264 16.3005 0.0244141 16.3005V15.743C8.92165 15.743 12.5675 15.4111 12.5675 15.4111V39.0459C12.5675 40.3839 12.9763 41.4617 13.7939 42.2793C14.6115 43.097 15.6893 43.5058 17.0272 43.5058H17.083V44.0633H0.0244141Z" fill="#FAFAFA"/>
<path d="M52.5979 45.8932L49.8833 39.0958C52.0753 38.5417 54.3112 37.94 56.5828 37.2911L53.0993 45.8932H52.5979Z" fill="#FAFAFA"/>
<path d="M67.5739 33.869L71.872 45.8932H72.3177L76.2642 35.6319L75.9385 34.6961L74.7922 31.3171C72.5381 32.1527 70.2362 32.9689 67.8932 33.7613L67.5739 33.869Z" fill="#FAFAFA"/>
</svg>
