<svg width="164" height="58" viewBox="0 0 164 58" fill="none" xmlns="http://www.w3.org/2000/svg">
<path d="M63.3766 15.5208C64.7397 15.5208 65.6879 15.7589 66.3398 16.235C67.1694 16.8301 67.5843 17.6037 67.5843 18.7345C67.5843 21.234 65.3916 22.3052 63.6137 22.3052C63.5544 22.3052 63.3766 22.3052 63.3174 22.2457L62.2506 22.0076V24.8047C62.2506 26.352 62.4284 26.5306 63.7915 26.7091V27.0067H58.6356V26.7091C59.9394 26.4711 60.0579 26.4115 60.0579 24.8047V17.6632C60.0579 16.0564 59.8801 15.9374 58.6356 15.7588V15.4613H63.3766V15.5208ZM62.3099 21.6506C62.5469 21.7101 62.8433 21.7101 63.2581 21.7101C63.7915 21.7101 65.3323 21.472 65.3323 18.675C65.3323 16.592 64.4434 15.8779 63.1988 15.8779C62.9025 15.8779 62.6062 15.9374 62.4877 15.9969C62.3099 16.1159 62.3099 16.2945 62.3099 16.592V21.6506Z" fill="#6B6B6B"/>
<path d="M78.1923 27.0066V26.7091C79.3776 26.471 79.4368 26.2329 79.0813 25.3403C78.8442 24.7451 78.5479 23.8525 78.1923 22.8408H74.9921C74.6958 23.6739 74.3995 24.4476 74.2217 25.1022C73.8069 26.2925 73.9847 26.471 75.4662 26.7091V27.0066H71.6734V26.7091C72.8587 26.5305 73.0365 26.2925 73.6883 24.6856L77.3034 15.3422L77.7775 15.2827C78.9035 18.4368 80.0295 21.472 81.2147 24.5666C81.8073 26.2925 81.9851 26.4115 83.0519 26.6495V26.9471H78.1923V27.0066ZM76.6515 18.3178C76.1181 19.8056 75.7033 20.9959 75.2292 22.3051H78.0145L76.6515 18.3178Z" fill="#6B6B6B"/>
<path d="M97.4527 24.1501C97.275 24.9832 96.8009 26.7686 96.7416 27.0067H88.4448V26.7091C89.9856 26.4711 90.1042 26.352 90.1042 24.8047V17.6632C90.1042 16.1159 89.9856 15.9969 88.6226 15.7588V15.4613H93.7192V15.7588C92.4154 15.9969 92.2969 16.1159 92.2969 17.6632V25.2213C92.2969 26.352 92.5932 26.4115 93.4821 26.4115C93.7785 26.4115 94.2526 26.4115 94.5489 26.4115C95.4971 26.4115 95.7341 26.2925 96.2082 25.8164C96.5638 25.4594 96.9787 24.6857 97.275 23.9715L97.4527 24.1501Z" fill="#6B6B6B"/>
<path d="M112.802 26.709C114.046 26.471 114.165 26.352 114.165 24.5071L114.224 17.1871C112.861 20.3412 110.313 26.233 110.076 27.0066H109.839C109.542 26.1734 107.29 20.5793 105.987 17.4847C105.749 22.9003 105.69 24.9832 105.749 25.5783C105.809 26.352 106.164 26.5305 107.527 26.7686V27.0661H103.379V26.7686C104.623 26.59 104.861 26.2925 104.979 25.6378C105.038 25.0427 105.157 24.0905 105.572 17.1276C105.572 16.711 105.453 16.0563 103.912 15.8778V15.5803H107.409L110.965 23.7334L114.58 15.5803H117.898V15.8778C116.417 16.1159 116.298 16.2944 116.358 17.9012L116.417 24.5666C116.417 26.352 116.476 26.5305 117.898 26.7686V27.0661H112.802V26.709Z" fill="#6B6B6B"/>
<path d="M124.299 27.0067V26.7091C125.603 26.4711 125.721 26.352 125.721 24.6857V17.7228C125.721 16.0564 125.603 15.9374 124.299 15.7588V15.4613H129.336V15.7588C128.032 15.9969 127.914 16.0564 127.914 17.7228V24.6262C127.914 26.352 128.032 26.4115 129.336 26.6496V26.9472H124.299V27.0067Z" fill="#6B6B6B"/>
<path d="M147.53 15.8184C146.345 16.0564 146.107 16.235 146.048 17.4847C146.048 18.0203 145.989 18.4964 145.989 20.3413V27.3042H145.574L137.692 17.7823V22.3052C137.692 23.9715 137.692 24.4476 137.751 25.0428C137.811 26.233 137.929 26.5901 139.589 26.7686V27.0662H135.499V26.7686C136.803 26.5901 136.981 26.2925 137.04 25.0428C137.1 24.3881 137.1 23.7335 137.1 22.2457V17.6037C137.1 17.2467 136.981 16.8896 136.803 16.6515C136.329 16.0564 136.033 15.9374 135.262 15.7588V15.4613H138.64L145.456 23.4954V20.2223C145.456 18.3774 145.396 17.9013 145.396 17.4252C145.337 16.1754 144.922 15.9374 143.381 15.7588V15.4613H147.53V15.8184Z" fill="#6B6B6B"/>
<path d="M159.145 27.0066V26.7091C160.331 26.471 160.39 26.2329 160.034 25.3403C159.797 24.7451 159.501 23.8525 159.145 22.8408H155.945C155.649 23.6739 155.352 24.4476 155.175 25.1022C154.76 26.2925 154.938 26.471 156.419 26.7091V27.0066H152.626V26.7091C153.812 26.5305 153.989 26.2925 154.641 24.6856L158.256 15.3422L158.73 15.2827C159.856 18.4368 160.982 21.472 162.168 24.5666C162.76 26.2925 162.938 26.4115 164.005 26.6495V26.9471H159.145V27.0066ZM157.664 18.3178C157.13 19.8056 156.716 20.9959 156.241 22.3051H159.027L157.664 18.3178Z" fill="#6B6B6B"/>
<path d="M58.6949 47.3598V47.1217C59.9987 46.8837 60.1172 46.7647 60.1172 45.0983V38.1354C60.1172 36.4691 59.9987 36.35 58.6949 36.1715V35.8739H63.7323V36.1715C62.4285 36.4095 62.3099 36.4691 62.3099 38.1354V45.0388C62.3099 46.7647 62.4285 46.8242 63.7323 47.0622V47.3598H58.6949Z" fill="#6B6B6B"/>
<path d="M81.9851 36.1715C80.7998 36.4095 80.5628 36.5881 80.5035 37.8378C80.5035 38.3734 80.4443 38.8495 80.4443 40.6944V47.6573H80.0294L72.1475 38.1354V42.6583C72.1475 44.3247 72.1475 44.8008 72.2067 45.3959C72.266 46.5861 72.3845 46.9432 74.0439 47.1217V47.4193H69.9548V47.1217C71.2585 46.9432 71.4363 46.6456 71.4956 45.3959C71.5549 44.7413 71.5549 44.0866 71.5549 42.5988V37.9569C71.5549 37.5998 71.4363 37.2427 71.2585 37.0047C70.7844 36.4095 70.4881 36.2905 69.7177 36.112V35.8144H73.0957L79.9109 43.8486V40.5754C79.9109 38.7305 79.8516 38.2544 79.8516 37.7783C79.7924 36.5286 79.3775 36.2905 77.8367 36.112V35.8144H81.9851V36.1715Z" fill="#6B6B6B"/>
<path d="M99.0528 36.1715C97.8083 36.35 97.6305 36.6476 96.8601 38.4329C96.1489 40.0398 94.5488 44.2056 93.245 47.6573H92.8302C91.7635 44.6817 89.9856 40.0993 89.3337 38.3139C88.6818 36.6476 88.5633 36.4095 87.378 36.1715V35.9334H92.4154V36.1715C91.0523 36.4095 91.1709 36.7071 91.4079 37.5402C91.7042 38.4924 92.9487 41.7656 93.9562 44.4437C94.5488 42.9559 95.7341 39.7422 96.386 38.0164C96.9193 36.6476 96.8008 36.4095 95.0822 36.1715V35.9334H99.0528V36.1715Z" fill="#6B6B6B"/>
<path d="M113.157 44.6222C113.098 45.2174 112.743 46.9432 112.624 47.4193H104.031V47.1217C105.572 46.8837 105.69 46.8242 105.69 45.2769V38.0759C105.69 36.4691 105.631 36.35 104.327 36.231V35.9335H109.661C111.38 35.9335 112.091 35.9335 112.209 35.8739C112.209 36.5286 112.268 37.6593 112.387 38.433L112.091 38.4925C111.972 38.0759 111.735 37.4213 111.32 36.9452C111.024 36.5286 110.609 36.4691 109.602 36.4691H108.298C107.942 36.4691 107.883 36.5286 107.883 36.8856V41.111H109.602C110.965 41.111 111.024 40.6944 111.32 39.6232H111.617V43.1344H111.32C111.083 42.0632 111.024 41.6466 109.602 41.6466H107.883V45.3959C107.883 46.6457 108.12 46.8837 109.246 46.8837H110.313C111.38 46.8837 111.617 46.7647 112.031 46.2886C112.328 45.9315 112.624 45.3364 112.92 44.6222H113.157Z" fill="#6B6B6B"/>
<path d="M126.017 38.433C125.662 36.9452 124.832 36.112 123.469 36.112C122.402 36.112 121.81 36.8262 121.81 37.9569C121.81 39.0877 122.402 39.6233 123.943 40.5159C125.484 41.4086 126.788 42.3608 126.788 44.2057C126.788 46.2291 125.069 47.6574 122.758 47.6574C121.869 47.6574 121.039 47.4789 120.091 47.2408C119.973 46.8838 119.735 44.8008 119.676 44.5628L119.973 44.5033C120.387 46.0506 121.395 47.3003 122.995 47.3003C124.18 47.3003 124.714 46.4672 124.714 45.2769C124.714 44.1462 124.062 43.3725 122.817 42.5989C121.217 41.6467 119.973 40.754 119.973 38.9091C119.973 37.0642 121.395 35.6954 123.765 35.6954C124.832 35.6954 125.602 35.9335 126.017 35.9335C126.077 36.5881 126.195 37.5403 126.314 38.433H126.017Z" fill="#6B6B6B"/>
<path d="M142.552 38.4925C142.315 37.7783 142.196 37.3022 141.781 36.8261C141.485 36.4691 141.248 36.4095 140.359 36.4095H138.937V45.2173C138.937 46.7647 139.114 46.8837 140.477 47.1217V47.4193H135.262V47.1217C136.566 46.8242 136.744 46.7647 136.744 45.2173V36.4095H135.144C134.373 36.4095 134.196 36.5881 133.958 36.8856C133.662 37.2427 133.366 37.8974 133.188 38.552H132.833C132.892 37.5998 133.01 36.4095 133.07 35.5169H133.307C133.603 35.9334 133.899 35.9335 134.373 35.9335H141.426C141.9 35.9335 142.137 35.8739 142.492 35.5169H142.729C142.729 36.2905 142.729 37.5998 142.848 38.4925H142.552Z" fill="#6B6B6B"/>
<path d="M28.7672 15.6992C28.7672 15.6992 29.5661 11.3487 30.9006 8.91483C31.8964 7.0988 32.6377 6.15202 34.1008 4.68948C36.048 2.74305 39.9085 0.702148 39.9085 0.702148C39.9085 0.702148 38.2188 4.53335 36.7676 6.77241C35.5884 8.59188 34.8182 9.54697 33.3896 11.1763C31.7241 13.0759 28.7672 15.6992 28.7672 15.6992Z" fill="#6B6B6B"/>
<path d="M21.6103 13.0756C20.1277 17.5383 19.8777 20.5481 19.8777 24.8641C19.8777 24.8641 23.3312 18.873 25.2114 14.8661C27.5141 9.95868 30.308 1.95191 30.308 1.95191C26.5276 4.24834 23.0601 8.71163 21.6103 13.0756Z" fill="#6B6B6B"/>
<path d="M9.37427 38.6456C9.37427 38.6456 7.45118 31.3111 7.23981 25.7314C7.03241 20.2563 10.5595 10.5558 10.5595 10.5558C10.5595 10.5558 11.7967 19.4738 11.5077 25.1958C11.2395 30.5077 9.37427 38.6456 9.37427 38.6456Z" fill="#6B6B6B"/>
<path d="M5.0028 47.8359C5.0028 47.8359 1.28753 38.8499 0.64341 33.2859C-0.0103014 27.639 1.86187 19.8651 1.86187 19.8651C1.86187 19.8651 4.59092 27.7552 5.46591 36.1924C6.01488 41.4861 5.0028 47.8359 5.0028 47.8359Z" fill="#6B6B6B"/>
<path d="M38.6073 17.068C34.7375 17.8517 33.6481 18.2715 29.7746 20.2817C32.6214 20.8879 36.8379 20.6147 39.6695 19.8651C42.0647 19.231 43.5939 18.3353 45.4208 17.2652C46.0424 16.9011 46.6985 16.5169 47.4349 16.1158C47.4349 16.1158 41.7663 16.4283 38.6073 17.068Z" fill="#6B6B6B"/>
<path d="M23.9669 26.4709C23.9669 26.4709 28.2133 24.3092 31.9164 23.5108C36.3167 22.5622 44.7088 22.3051 44.7088 22.3051C44.7088 22.3051 37.4372 26.5125 32.2693 27.0212C29.0355 27.3394 23.9669 26.4709 23.9669 26.4709Z" fill="#6B6B6B"/>
<path d="M30.7228 29.5656C25.3052 30.7293 17.2702 34.0885 17.2702 34.0885C17.2702 34.0885 24.0563 34.7361 28.293 33.9695C33.9366 32.9483 41.805 28.1968 41.805 28.1968C41.805 28.1968 34.9868 28.6497 30.7228 29.5656Z" fill="#6B6B6B"/>
<path d="M13.1811 42.4798C13.1811 42.4798 21.7285 38.6173 27.5226 37.1832C32.0039 36.0739 39.1974 35.3383 39.1974 35.3383C39.1974 35.3383 31.7742 40.3775 26.3374 41.7656C21.3507 43.0388 13.1811 42.4798 13.1811 42.4798Z" fill="#6B6B6B"/>
<path d="M23.2557 45.3958C17.733 46.5217 9.56603 49.9783 9.56603 49.9783C9.56603 49.9783 17.2562 50.9878 22.0112 49.9783C27.2079 48.875 34.3378 44.2056 34.3378 44.2056C34.3378 44.2056 27.5212 44.5263 23.2557 45.3958Z" fill="#6B6B6B"/>
<path d="M5.65469 57.2983C5.65469 57.2983 9.50676 38.7305 28.6486 18.9129V18.3773C22.9594 22.9597 9.68455 36.588 4.11385 54.9178L5.65469 57.2983Z" fill="#6B6B6B"/>
<path d="M33.1959 15.2163C33.1959 15.2163 35.5182 13.0528 37.1604 12.0692C39.3672 10.7476 40.8051 10.272 43.7602 9.83389C46.7153 9.39576 50.4673 9.38525 50.4673 9.38525C50.4673 9.38525 47.4589 11.2819 45.3861 12.2034C42.639 13.4247 40.9772 13.8667 38.0375 14.4884C36.1667 14.884 33.1959 15.2163 33.1959 15.2163Z" fill="#6B6B6B"/>
<path d="M14.2997 17.068C13.2635 28.2625 15.0182 30.3392 15.0182 30.3392C15.0182 30.3392 17.2465 22.668 18.042 17.9262C18.9926 12.2606 19.9492 3.66136 19.9492 3.66136C19.9492 3.66136 14.805 11.6087 14.2997 17.068Z" fill="#6B6B6B"/>
</svg>
