<svg width="46" height="46" viewBox="0 0 46 46" fill="none" xmlns="http://www.w3.org/2000/svg">
<path d="M35.59 24.207L25.5099 20.4961L21.799 10.4082C21.5792 9.81119 21.1816 9.29595 20.6598 8.932C20.138 8.56806 19.5172 8.37292 18.881 8.37292C18.2448 8.37292 17.6239 8.56806 17.1022 8.932C16.5804 9.29595 16.1828 9.81119 15.963 10.4082L12.2482 20.4844L2.16028 24.1953C1.56327 24.4151 1.04803 24.8127 0.684084 25.3345C0.320138 25.8562 0.125 26.4771 0.125 27.1133C0.125 27.7495 0.320138 28.3703 0.684084 28.8921C1.04803 29.4139 1.56327 29.8115 2.16028 30.0313L12.2345 33.7656L15.9454 43.8477C16.1652 44.4447 16.5628 44.9599 17.0846 45.3239C17.6064 45.6878 18.2272 45.8829 18.8634 45.8829C19.4996 45.8829 20.1205 45.6878 20.6422 45.3239C21.164 44.9599 21.5616 44.4447 21.7814 43.8477L25.4923 33.7676L35.5802 30.0566C36.1772 29.8369 36.6925 29.4393 37.0564 28.9175C37.4204 28.3957 37.6155 27.7748 37.6155 27.1387C37.6155 26.5025 37.4204 25.8816 37.0564 25.3598C36.6925 24.8381 36.1772 24.4405 35.5802 24.2207L35.59 24.207ZM24.42 30.8359C23.9978 30.9909 23.6143 31.2359 23.2963 31.554C22.9783 31.872 22.7332 32.2555 22.5783 32.6777L18.8673 42.7285L15.1642 32.6699C15.0091 32.2499 14.7648 31.8685 14.4482 31.5519C14.1316 31.2353 13.7502 30.991 13.3302 30.8359L3.27942 27.125L13.3302 23.4141C13.7502 23.259 14.1316 23.0147 14.4482 22.6981C14.7648 22.3815 15.0091 22.0001 15.1642 21.5801L18.8751 11.5293L22.5861 21.5801C22.741 22.0023 22.9861 22.3858 23.3041 22.7038C23.6222 23.0219 24.0056 23.2669 24.4279 23.4219L34.4786 27.1328L24.42 30.8359ZM25.1251 6.8125C25.1251 6.3981 25.2897 6.00067 25.5828 5.70765C25.8758 5.41462 26.2732 5.25 26.6876 5.25H29.8126V2.125C29.8126 1.7106 29.9772 1.31317 30.2703 1.02015C30.5633 0.72712 30.9607 0.5625 31.3751 0.5625C31.7895 0.5625 32.187 0.72712 32.48 1.02015C32.773 1.31317 32.9376 1.7106 32.9376 2.125V5.25H36.0626C36.477 5.25 36.8745 5.41462 37.1675 5.70765C37.4605 6.00067 37.6251 6.3981 37.6251 6.8125C37.6251 7.2269 37.4605 7.62433 37.1675 7.91735C36.8745 8.21038 36.477 8.375 36.0626 8.375H32.9376V11.5C32.9376 11.9144 32.773 12.3118 32.48 12.6049C32.187 12.8979 31.7895 13.0625 31.3751 13.0625C30.9607 13.0625 30.5633 12.8979 30.2703 12.6049C29.9772 12.3118 29.8126 11.9144 29.8126 11.5V8.375H26.6876C26.2732 8.375 25.8758 8.21038 25.5828 7.91735C25.2897 7.62433 25.1251 7.2269 25.1251 6.8125ZM45.4376 16.1875C45.4376 16.6019 45.273 16.9993 44.98 17.2924C44.687 17.5854 44.2895 17.75 43.8751 17.75H42.3126V19.3125C42.3126 19.7269 42.148 20.1243 41.855 20.4174C41.562 20.7104 41.1645 20.875 40.7501 20.875C40.3357 20.875 39.9383 20.7104 39.6453 20.4174C39.3522 20.1243 39.1876 19.7269 39.1876 19.3125V17.75H37.6251C37.2107 17.75 36.8133 17.5854 36.5203 17.2924C36.2272 16.9993 36.0626 16.6019 36.0626 16.1875C36.0626 15.7731 36.2272 15.3757 36.5203 15.0826C36.8133 14.7896 37.2107 14.625 37.6251 14.625H39.1876V13.0625C39.1876 12.6481 39.3522 12.2507 39.6453 11.9576C39.9383 11.6646 40.3357 11.5 40.7501 11.5C41.1645 11.5 41.562 11.6646 41.855 11.9576C42.148 12.2507 42.3126 12.6481 42.3126 13.0625V14.625H43.8751C44.2895 14.625 44.687 14.7896 44.98 15.0826C45.273 15.3757 45.4376 15.7731 45.4376 16.1875Z" fill="#BCD7FF"/>
</svg>
